<svg xmlns="http://www.w3.org/2000/svg" width="178.268" height="28.258" viewBox="0 0 178.268 28.258">
  <g id="Group_12" data-name="Group 12" transform="translate(-16.636 -1306.387)" style="isolation: isolate">
    <g id="Group_13" data-name="Group 13" transform="translate(51.232 1310.454)">
      <g id="Group_12-2" data-name="Group 12" transform="translate(0 0)">
        <path id="Path_215" data-name="Path 215" d="M213,1330.723a11.763,11.763,0,0,1,2.353.231,5.716,5.716,0,0,1,1.986.789,4.193,4.193,0,0,1,1.374,1.469,4.777,4.777,0,0,1-.421,5.059,4.415,4.415,0,0,1-1.061.993,3.935,3.935,0,0,1-1.374.571v.055a4.579,4.579,0,0,1,2.992,1.537,4.721,4.721,0,0,1,1.115,3.2,7.687,7.687,0,0,1-.081,1.047,5.119,5.119,0,0,1-.327,1.2,5.054,5.054,0,0,1-.707,1.21,4.184,4.184,0,0,1-1.238,1.048,7.466,7.466,0,0,1-1.9.734,11.166,11.166,0,0,1-2.706.286h-8.215v-19.421Zm0,8.514a6.429,6.429,0,0,0,1.931-.258,4.03,4.03,0,0,0,1.36-.707,2.925,2.925,0,0,0,.816-1.048,3.051,3.051,0,0,0,.272-1.278q0-3.644-4.379-3.645H206.63v6.936Zm0,9.33a10.41,10.41,0,0,0,1.958-.177,4.486,4.486,0,0,0,1.632-.64,3.265,3.265,0,0,0,1.115-1.237,4.14,4.14,0,0,0,.408-1.945,3.227,3.227,0,0,0-1.319-2.815,6.5,6.5,0,0,0-3.794-.939H206.63v7.752Z" transform="translate(-204.781 -1330.315)" fill="#fff"/>
        <path id="Path_216" data-name="Path 216" d="M301.784,1330.723l7.617,19.421h-1.986l-2.367-6.039h-8.84l-2.339,6.039H291.91l7.806-19.421Zm2.639,11.805-3.754-9.956-3.89,9.956Z" transform="translate(-275.889 -1330.315)" fill="#fff"/>
        <path id="Path_217" data-name="Path 217" d="M393.582,1344.444a4.093,4.093,0,0,0,1.346,1.6,5.609,5.609,0,0,0,2.027.857,11.571,11.571,0,0,0,2.5.259,7.083,7.083,0,0,0,1.659-.218,5.777,5.777,0,0,0,1.673-.693,4.265,4.265,0,0,0,1.292-1.224,3.1,3.1,0,0,0,.517-1.809,2.653,2.653,0,0,0-.367-1.415,3.362,3.362,0,0,0-.952-1.006,5.608,5.608,0,0,0-1.292-.666,12.73,12.73,0,0,0-1.387-.422l-4.325-1.061a12.88,12.88,0,0,1-1.646-.544,4.68,4.68,0,0,1-1.4-.87,4.132,4.132,0,0,1-.966-1.333,4.559,4.559,0,0,1-.367-1.931,6.154,6.154,0,0,1,.272-1.659,4.6,4.6,0,0,1,1.02-1.8,5.943,5.943,0,0,1,2.054-1.428,8.237,8.237,0,0,1,3.346-.585,9.781,9.781,0,0,1,2.747.381,6.793,6.793,0,0,1,2.285,1.142,5.505,5.505,0,0,1,2.149,4.516h-1.85a4.5,4.5,0,0,0-.5-1.945,4.338,4.338,0,0,0-1.169-1.387,5.118,5.118,0,0,0-1.659-.844,6.743,6.743,0,0,0-1.972-.286,8.134,8.134,0,0,0-1.836.2,4.591,4.591,0,0,0-1.551.653,3.382,3.382,0,0,0-1.075,1.183,3.712,3.712,0,0,0-.408,1.823,2.8,2.8,0,0,0,.231,1.183,2.489,2.489,0,0,0,.639.857,3.384,3.384,0,0,0,.939.572,7.212,7.212,0,0,0,1.129.354l4.732,1.169a13.734,13.734,0,0,1,1.945.666,6.442,6.442,0,0,1,1.6.98,4.135,4.135,0,0,1,1.088,1.428,4.791,4.791,0,0,1,.394,2.04,7.412,7.412,0,0,1-.068.871,4.409,4.409,0,0,1-.326,1.156,5.778,5.778,0,0,1-.735,1.238,4.631,4.631,0,0,1-1.305,1.129,7.582,7.582,0,0,1-2.054.816,12.017,12.017,0,0,1-2.938.313,12.256,12.256,0,0,1-3.183-.394,6.85,6.85,0,0,1-2.5-1.21,5.328,5.328,0,0,1-1.591-2.095,6.865,6.865,0,0,1-.476-3.074h1.85A5.466,5.466,0,0,0,393.582,1344.444Z" transform="translate(-356.97 -1328.505)" fill="#fff"/>
        <path id="Path_218" data-name="Path 218" d="M503.243,1330.723v1.578h-11.56v7.018h10.826v1.578H491.683v7.67h11.7v1.578H489.833v-19.421Z" transform="translate(-437.418 -1330.315)" fill="#fff"/>
      </g>
    </g>
    <g id="Group_15" data-name="Group 15" transform="translate(119.695 1310.399)">
      <g id="Group_14" data-name="Group 14" transform="translate(0 0)">
        <path id="Path_219" data-name="Path 219" d="M586.247,1330.723a12.1,12.1,0,0,1,2.53.245,5.478,5.478,0,0,1,1.958.8,3.733,3.733,0,0,1,1.265,1.483,5.2,5.2,0,0,1,.449,2.285,4.255,4.255,0,0,1-.667,2.448,4.834,4.834,0,0,1-1.972,1.6,4.671,4.671,0,0,1,2.68,1.809,5.937,5.937,0,0,1,.313,5.657,4.949,4.949,0,0,1-1.537,1.754,6.8,6.8,0,0,1-2.2,1.007,9.937,9.937,0,0,1-2.543.326h-9.411v-19.421Zm-.544,7.861a3.069,3.069,0,0,0,1.877-.544,2.055,2.055,0,0,0,.734-1.768,2.258,2.258,0,0,0-.245-1.115,1.811,1.811,0,0,0-.653-.68,2.753,2.753,0,0,0-.939-.34,6.221,6.221,0,0,0-1.1-.1h-4v4.543Zm.245,8.242a5.7,5.7,0,0,0,1.2-.123,2.939,2.939,0,0,0,1.006-.408,2.059,2.059,0,0,0,.694-.775,2.676,2.676,0,0,0,.258-1.252,2.512,2.512,0,0,0-.843-2.135,3.6,3.6,0,0,0-2.23-.64h-4.652v5.331Z" transform="translate(-577.108 -1330.261)" fill="#fff"/>
        <path id="Path_220" data-name="Path 220" d="M677.318,1334.424a9.7,9.7,0,0,1,1.877-3.25A8.58,8.58,0,0,1,682.2,1329a10.634,10.634,0,0,1,8.037,0,8.623,8.623,0,0,1,2.992,2.177,9.708,9.708,0,0,1,1.877,3.25,12.14,12.14,0,0,1,.653,4.039,11.733,11.733,0,0,1-.653,3.958,9.447,9.447,0,0,1-1.877,3.2,8.625,8.625,0,0,1-2.992,2.136,10.805,10.805,0,0,1-8.037,0,8.583,8.583,0,0,1-3.006-2.136,9.44,9.44,0,0,1-1.877-3.2,11.733,11.733,0,0,1-.653-3.958A12.14,12.14,0,0,1,677.318,1334.424Zm3.9,6.42a6.409,6.409,0,0,0,.911,2.081,4.659,4.659,0,0,0,1.632,1.483,5.654,5.654,0,0,0,4.9,0,4.67,4.67,0,0,0,1.632-1.483,6.425,6.425,0,0,0,.911-2.081,9.887,9.887,0,0,0,.286-2.38,10.631,10.631,0,0,0-.286-2.475,6.557,6.557,0,0,0-.911-2.135,4.631,4.631,0,0,0-1.632-1.5,5.654,5.654,0,0,0-4.9,0,4.62,4.62,0,0,0-1.632,1.5,6.542,6.542,0,0,0-.911,2.135,10.637,10.637,0,0,0-.286,2.475A9.893,9.893,0,0,0,681.221,1340.844Z" transform="translate(-658.359 -1328.209)" fill="#fff"/>
        <path id="Path_221" data-name="Path 221" d="M800.58,1330.723l8.106,13.029h.054v-13.029h4v19.421h-4.27l-8.079-13h-.054v13h-4v-19.421Z" transform="translate(-756.026 -1330.261)" fill="#fff"/>
        <path id="Path_222" data-name="Path 222" d="M920.475,1330.723v3.59H910.22v4.162h9.412v3.319H910.22v4.76h10.472v3.59H905.95v-19.421Z" transform="translate(-845.483 -1330.261)" fill="#fff"/>
      </g>
    </g>
    <path id="Path_223" data-name="Path 223" d="M168.514,1317.624s0-.04,0,0Z" transform="translate(-123.951 -9.157)" fill="#878787"/>
    <path id="Path_224" data-name="Path 224" d="M168.514,1355.1s0-.04,0,0Z" transform="translate(-123.951 -39.745)" fill="#878787"/>
    <path id="Path_225" data-name="Path 225" d="M168.514,1392.583s0-.04,0,0Z" transform="translate(-123.951 -70.333)" fill="#878787"/>
    <g id="Group_16" data-name="Group 16" transform="translate(16.636 1308.346)">
      <path id="Path_226" data-name="Path 226" d="M19.327,1324.276c1.672.579,3.808,1.407,4.718,3.053.267,1,1.658,1.425,2.521,1.684a14.992,14.992,0,0,0,6.791.279c1.118-.218,3.224-.6,3.7-1.883.919-1.717,3.188-2.572,4.919-3.154.866-.292,2.6-.782,2.6-1.981,0,0,0-5.15-.007-5.11,0,.506-.545.937-.932,1.164a17.95,17.95,0,0,1-2.806,1.119c-1.379.564-3.045,1.344-3.773,2.732a2.483,2.483,0,0,1-1.524,1.253,11.284,11.284,0,0,1-3.833.825,16.129,16.129,0,0,1-4.224-.25c-1.073-.218-3.091-.659-3.426-1.909-.91-1.645-3.044-2.477-4.718-3.053-.907-.257-2.691-.793-2.691-2v5.232C16.636,1323.48,18.408,1324.024,19.327,1324.276Z" transform="translate(-16.636 -1317.041)" fill="#fff"/>
      <path id="Path_227" data-name="Path 227" d="M43.631,1355.81a20.617,20.617,0,0,1-2.806,1.119c-1.385.561-3.037,1.347-3.773,2.731a2.545,2.545,0,0,1-1.524,1.253,11.439,11.439,0,0,1-3.833.825,16.088,16.088,0,0,1-4.224-.25c-1.075-.222-3.09-.658-3.426-1.909-.911-1.648-3.044-2.471-4.718-3.053-.907-.257-2.691-.792-2.691-2v5.231c0,1.213,1.773,1.741,2.691,2,1.672.574,3.808,1.409,4.718,3.053.269,1,1.658,1.413,2.521,1.684a14.893,14.893,0,0,0,6.791.28c1.1-.214,3.24-.6,3.7-1.884.927-1.718,3.182-2.569,4.919-3.155.866-.292,2.6-.781,2.6-1.981,0,0,0-5.151-.007-5.111C44.563,1355.159,44.016,1355.573,43.631,1355.81Z" transform="translate(-16.636 -1347.633)" fill="#fff"/>
      <path id="Path_228" data-name="Path 228" d="M43.631,1393.29a16.92,16.92,0,0,1-2.806,1.119c-1.385.572-3.034,1.341-3.773,2.731a2.634,2.634,0,0,1-1.524,1.254,11.508,11.508,0,0,1-3.833.824,16.2,16.2,0,0,1-4.224-.25c-1.073-.215-3.092-.661-3.426-1.908-.91-1.645-3.044-2.477-4.718-3.052-.907-.261-2.691-.791-2.691-2v5.231c0,1.207,1.772,1.751,2.691,2,1.672.579,3.808,1.407,4.718,3.053.268,1,1.657,1.424,2.521,1.683a14.886,14.886,0,0,0,6.791.28c1.117-.216,3.224-.6,3.7-1.883.92-1.718,3.188-2.57,4.919-3.154.866-.292,2.6-.781,2.6-1.981,0,0,0-5.151-.007-5.111C44.563,1392.632,44.018,1393.062,43.631,1393.29Z" transform="translate(-16.636 -1378.22)" fill="#fff"/>
    </g>
    <path id="Path_229" data-name="Path 229" d="M40.059,1309.622c1.2.417,2.729,1.008,3.382,2.189.193.736,1.26,1.053,1.892,1.231a11.505,11.505,0,0,0,5.556,0c.635-.18,1.624-.476,1.876-1.174.678-1.274,2.376-1.887,3.656-2.305.872-.261,2.519-1.167,1.3-2.136a7.11,7.11,0,0,0-4.262-1.014q-.651,0-1.239.058l-.28.04c-.046,0-.092.011-.137.018a29.132,29.132,0,0,1-7.1.025,9.9,9.9,0,0,0-5.522.509c-.519.237-1.254.71-1,1.39S39.424,1309.443,40.059,1309.622Z" transform="translate(-17.539)" fill="#fff"/>
  </g>
</svg>
